<svg id="SvgjsSvg1006" width="570" height="353" xmlns="http://www.w3.org/2000/svg" version="1.1" xmlns:xlink="http://www.w3.org/1999/xlink" xmlns:svgjs="http://svgjs.com/svgjs"><defs id="SvgjsDefs1007"></defs><g id="SvgjsG1008" transform="translate(232,25)"><path id="SvgjsPath1009" d="M 0 0L 100 0L 100 70L 0 70Z" stroke="rgba(50,50,50,1)" stroke-width="2" fill-opacity="1" fill="#ffffff"></path><g id="SvgjsG1010"><text id="SvgjsText1011" font-family="微软雅黑" text-anchor="middle" font-size="13px" width="80px" fill="#323232" font-weight="400" align="middle" lineHeight="125%" anchor="middle" family="微软雅黑" size="13px" weight="400" font-style="" opacity="1" y="24.375" transform="rotate(0)"><tspan id="SvgjsTspan1012" dy="16" x="50"><tspan id="SvgjsTspan1013" style="text-decoration:;">出版社</tspan></tspan></text></g></g><g id="SvgjsG1014"><path id="SvgjsPath1015" d="M231 60L178 60L178 60L124 60" stroke="#323232" stroke-width="2" fill="none"></path></g><g id="SvgjsG1016"><path id="SvgjsPath1017" d="M333 60L388.5 60L388.5 60L444 60" stroke="#323232" stroke-width="2" fill="none"></path></g><g id="SvgjsG1018"><path id="SvgjsPath1019" d="M282 96L282 143L282 143L282 190" stroke="#323232" stroke-width="2" fill="none"></path></g><g id="SvgjsG1020" transform="translate(25,25)"><path id="SvgjsPath1021" d="M 0 35C 0 -11.666666666666666 100 -11.666666666666666 100 35C 100 81.66666666666667 0 81.66666666666667 0 35Z" stroke="rgba(50,50,50,1)" stroke-width="2" fill-opacity="1" fill="#ffffff"></path><g id="SvgjsG1022"><text id="SvgjsText1023" font-family="微软雅黑" text-anchor="middle" font-size="13px" width="80px" fill="#323232" font-weight="400" align="middle" lineHeight="125%" anchor="middle" family="微软雅黑" size="13px" weight="400" font-style="" opacity="1" y="24.375" transform="rotate(0)"><tspan id="SvgjsTspan1024" dy="16" x="50"><tspan id="SvgjsTspan1025" style="text-decoration:;">出版社编号</tspan></tspan></text></g></g><g id="SvgjsG1026" transform="translate(445,25)"><path id="SvgjsPath1027" d="M 0 35C 0 -11.666666666666666 100 -11.666666666666666 100 35C 100 81.66666666666667 0 81.66666666666667 0 35Z" stroke="rgba(50,50,50,1)" stroke-width="2" fill-opacity="1" fill="#ffffff"></path><g id="SvgjsG1028"><text id="SvgjsText1029" font-family="微软雅黑" text-anchor="middle" font-size="13px" width="80px" fill="#323232" font-weight="400" align="middle" lineHeight="125%" anchor="middle" family="微软雅黑" size="13px" weight="400" font-style="" opacity="1" y="24.375" transform="rotate(0)"><tspan id="SvgjsTspan1030" dy="16" x="50"><tspan id="SvgjsTspan1031" style="text-decoration:;">地址</tspan></tspan></text></g></g><g id="SvgjsG1032" transform="translate(232,191)"><path id="SvgjsPath1033" d="M 0 35C 0 -11.666666666666666 100 -11.666666666666666 100 35C 100 81.66666666666667 0 81.66666666666667 0 35Z" stroke="rgba(50,50,50,1)" stroke-width="2" fill-opacity="1" fill="#ffffff"></path><g id="SvgjsG1034"><text id="SvgjsText1035" font-family="微软雅黑" text-anchor="middle" font-size="13px" width="80px" fill="#323232" font-weight="400" align="middle" lineHeight="125%" anchor="middle" family="微软雅黑" size="13px" weight="400" font-style="" opacity="1" y="24.375" transform="rotate(0)"><tspan id="SvgjsTspan1036" dy="16" x="50"><tspan id="SvgjsTspan1037" style="text-decoration:;">出版社名称</tspan></tspan></text></g></g><g id="SvgjsG1038" transform="translate(126,274)"><path id="SvgjsPath1039" d="M 0 0L 294 0L 294 54L 0 54Z" stroke="none" fill="none"></path><g id="SvgjsG1040"><text id="SvgjsText1041" font-family="微软雅黑" text-anchor="middle" font-size="13px" width="294px" fill="#323232" font-weight="400" align="middle" lineHeight="125%" anchor="middle" family="微软雅黑" size="13px" weight="400" font-style="" opacity="1" y="16.375" transform="rotate(0)"><tspan id="SvgjsTspan1042" dy="16" x="147"><tspan id="SvgjsTspan1043" style="text-decoration:;">出版社实体型</tspan></tspan></text></g></g></svg>