<svg id="SvgjsSvg1006" width="468" height="186.60000610351562" xmlns="http://www.w3.org/2000/svg" version="1.1" xmlns:xlink="http://www.w3.org/1999/xlink" xmlns:svgjs="http://svgjs.com/svgjs"><defs id="SvgjsDefs1007"></defs><g id="SvgjsG1008" transform="translate(184,25.00000762939453)"><path id="SvgjsPath1009" d="M 0 0L 100 0L 100 70L 0 70Z" stroke="rgba(50,50,50,1)" stroke-width="2" fill-opacity="1" fill="#ffffff"></path><g id="SvgjsG1010"><text id="SvgjsText1011" font-family="微软雅黑" text-anchor="middle" font-size="13px" width="80px" fill="#323232" font-weight="400" align="middle" lineHeight="125%" anchor="middle" family="微软雅黑" size="13px" weight="400" font-style="" opacity="1" y="24.375" transform="rotate(0)"><tspan id="SvgjsTspan1012" dy="16" x="50"><tspan id="SvgjsTspan1013" style="text-decoration:;">图书格式</tspan></tspan></text></g></g><g id="SvgjsG1014" transform="translate(25,25.00000762939453)"><path id="SvgjsPath1015" d="M 0 35C 0 -11.666666666666666 100 -11.666666666666666 100 35C 100 81.66666666666667 0 81.66666666666667 0 35Z" stroke="rgba(50,50,50,1)" stroke-width="2" fill-opacity="1" fill="#ffffff"></path><g id="SvgjsG1016"><text id="SvgjsText1017" font-family="微软雅黑" text-anchor="middle" font-size="13px" width="80px" fill="#323232" font-weight="400" align="middle" lineHeight="125%" anchor="middle" family="微软雅黑" size="13px" weight="400" font-style="" opacity="1" y="24.375" transform="rotate(0)"><tspan id="SvgjsTspan1018" dy="16" x="50"><tspan id="SvgjsTspan1019" style="text-decoration:underline;">图书格式编号</tspan></tspan></text></g></g><g id="SvgjsG1020" transform="translate(343,25.00000762939453)"><path id="SvgjsPath1021" d="M 0 35C 0 -11.666666666666666 100 -11.666666666666666 100 35C 100 81.66666666666667 0 81.66666666666667 0 35Z" stroke="rgba(50,50,50,1)" stroke-width="2" fill-opacity="1" fill="#ffffff"></path><g id="SvgjsG1022"><text id="SvgjsText1023" font-family="微软雅黑" text-anchor="middle" font-size="13px" width="80px" fill="#323232" font-weight="400" align="middle" lineHeight="125%" anchor="middle" family="微软雅黑" size="13px" weight="400" font-style="" opacity="1" y="24.375" transform="rotate(0)"><tspan id="SvgjsTspan1024" dy="16" x="50"><tspan id="SvgjsTspan1025" style="text-decoration:underline;">图书格式名</tspan></tspan></text></g></g><g id="SvgjsG1026"><path id="SvgjsPath1027" d="M126 60.00000762939453L154.5 60.00000762939453L154.5 60.00000762939453L183 60.00000762939453" stroke="#323232" stroke-width="2" fill="none"></path></g><g id="SvgjsG1028"><path id="SvgjsPath1029" d="M342 60.00000762939453L313.5 60.00000762939453L313.5 60.00000762939453L285 60.00000762939453" stroke="#323232" stroke-width="2" fill="none"></path></g><g id="SvgjsG1030" transform="translate(80.5,118.60000610351562)"><path id="SvgjsPath1031" d="M 0 0L 307 0L 307 43L 0 43Z" stroke="none" fill="none"></path><g id="SvgjsG1032"><text id="SvgjsText1033" font-family="微软雅黑" text-anchor="middle" font-size="13px" width="307px" fill="#323232" font-weight="700" align="middle" lineHeight="125%" anchor="middle" family="微软雅黑" size="13px" weight="700" font-style="" opacity="1" y="10.875" transform="rotate(0)"><tspan id="SvgjsTspan1034" dy="16" x="153.5"><tspan id="SvgjsTspan1035" style="text-decoration:;">图书格式实体</tspan></tspan></text></g></g></svg>