<svg id="SvgjsSvg1006" width="478" height="291.6000061035156" xmlns="http://www.w3.org/2000/svg" version="1.1" xmlns:xlink="http://www.w3.org/1999/xlink" xmlns:svgjs="http://svgjs.com/svgjs"><defs id="SvgjsDefs1007"></defs><g id="SvgjsG1008" transform="translate(189,127.00000762939453)"><path id="SvgjsPath1009" d="M 0 0L 100 0L 100 70L 0 70Z" stroke="rgba(50,50,50,1)" stroke-width="2" fill-opacity="1" fill="#ffffff"></path><g id="SvgjsG1010"><text id="SvgjsText1011" font-family="微软雅黑" text-anchor="middle" font-size="13px" width="80px" fill="#323232" font-weight="400" align="middle" lineHeight="125%" anchor="middle" family="微软雅黑" size="13px" weight="400" font-style="" opacity="1" y="24.375" transform="rotate(0)"><tspan id="SvgjsTspan1012" dy="16" x="50"><tspan id="SvgjsTspan1013" style="text-decoration:;">管理员</tspan></tspan></text></g></g><g id="SvgjsG1014" transform="translate(25,127.00000762939453)"><path id="SvgjsPath1015" d="M 0 35C 0 -11.666666666666666 100 -11.666666666666666 100 35C 100 81.66666666666667 0 81.66666666666667 0 35Z" stroke="rgba(50,50,50,1)" stroke-width="2" fill-opacity="1" fill="#ffffff"></path><g id="SvgjsG1016"><text id="SvgjsText1017" font-family="微软雅黑" text-anchor="middle" font-size="13px" width="80px" fill="#323232" font-weight="400" align="middle" lineHeight="125%" anchor="middle" family="微软雅黑" size="13px" weight="400" font-style="" opacity="1" y="24.375" transform="rotate(0)"><tspan id="SvgjsTspan1018" dy="16" x="50"><tspan id="SvgjsTspan1019" style="text-decoration:underline;">用户名</tspan></tspan></text></g></g><g id="SvgjsG1020" transform="translate(353,127.00000762939453)"><path id="SvgjsPath1021" d="M 0 35C 0 -11.666666666666666 100 -11.666666666666666 100 35C 100 81.66666666666667 0 81.66666666666667 0 35Z" stroke="rgba(50,50,50,1)" stroke-width="2" fill-opacity="1" fill="#ffffff"></path><g id="SvgjsG1022"><text id="SvgjsText1023" font-family="微软雅黑" text-anchor="middle" font-size="13px" width="80px" fill="#323232" font-weight="400" align="middle" lineHeight="125%" anchor="middle" family="微软雅黑" size="13px" weight="400" font-style="" opacity="1" y="24.375" transform="rotate(0)"><tspan id="SvgjsTspan1024" dy="16" x="50"><tspan id="SvgjsTspan1025" style="text-decoration:underline;">密码</tspan></tspan></text></g></g><g id="SvgjsG1026" transform="translate(189,25.00000762939453)"><path id="SvgjsPath1027" d="M 0 35C 0 -11.666666666666666 100 -11.666666666666666 100 35C 100 81.66666666666667 0 81.66666666666667 0 35Z" stroke="rgba(50,50,50,1)" stroke-width="2" fill-opacity="1" fill="#ffffff"></path><g id="SvgjsG1028"><text id="SvgjsText1029" font-family="微软雅黑" text-anchor="middle" font-size="13px" width="80px" fill="#323232" font-weight="400" align="middle" lineHeight="125%" anchor="middle" family="微软雅黑" size="13px" weight="400" font-style="" opacity="1" y="24.375" transform="rotate(0)"><tspan id="SvgjsTspan1030" dy="16" x="50"><tspan id="SvgjsTspan1031" style="text-decoration:underline;">管理员编号</tspan></tspan></text></g></g><g id="SvgjsG1032"><path id="SvgjsPath1033" d="M188 162.00000762939453L157 162.00000762939453L157 162.00000762939453L126 162.00000762939453" stroke="#323232" stroke-width="2" fill="none"></path></g><g id="SvgjsG1034"><path id="SvgjsPath1035" d="M239 126.00000762939453L239 96.00000762939453" stroke="#323232" stroke-width="2" fill="none"></path></g><g id="SvgjsG1036"><path id="SvgjsPath1037" d="M290 162.00000762939453L352 162.00000762939453" stroke="#323232" stroke-width="2" fill="none"></path></g><g id="SvgjsG1038" transform="translate(102,209.60000610351562)"><path id="SvgjsPath1039" d="M 0 0L 274 0L 274 57L 0 57Z" stroke="none" fill="none"></path><g id="SvgjsG1040"><text id="SvgjsText1041" font-family="微软雅黑" text-anchor="middle" font-size="13px" width="274px" fill="#323232" font-weight="700" align="middle" lineHeight="125%" anchor="middle" family="微软雅黑" size="13px" weight="700" font-style="" opacity="1" y="17.875" transform="rotate(0)"><tspan id="SvgjsTspan1042" dy="16" x="137"><tspan id="SvgjsTspan1043" style="text-decoration:;">管理员实体</tspan></tspan></text></g></g></svg>