<svg id="SvgjsSvg1006" width="488" height="402" xmlns="http://www.w3.org/2000/svg" version="1.1" xmlns:xlink="http://www.w3.org/1999/xlink" xmlns:svgjs="http://svgjs.com/svgjs"><defs id="SvgjsDefs1007"></defs><g id="SvgjsG1008" transform="translate(188.40000915527344,140.4000015258789)"><path id="SvgjsPath1009" d="M 0 0L 100 0L 100 70L 0 70Z" stroke="rgba(50,50,50,1)" stroke-width="2" fill-opacity="1" fill="#ffffff"></path><g id="SvgjsG1010"><text id="SvgjsText1011" font-family="微软雅黑" text-anchor="middle" font-size="13px" width="80px" fill="#323232" font-weight="400" align="middle" lineHeight="125%" anchor="middle" family="微软雅黑" size="13px" weight="400" font-style="" opacity="1" y="24.375" transform="rotate(0)"><tspan id="SvgjsTspan1012" dy="16" x="50"><tspan id="SvgjsTspan1013" style="text-decoration:;">评论</tspan></tspan></text></g></g><g id="SvgjsG1014" transform="translate(363,140.4000015258789)"><path id="SvgjsPath1015" d="M 0 35C 0 -11.666666666666666 100 -11.666666666666666 100 35C 100 81.66666666666667 0 81.66666666666667 0 35Z" stroke="rgba(50,50,50,1)" stroke-width="2" fill-opacity="1" fill="#ffffff"></path><g id="SvgjsG1016"><text id="SvgjsText1017" font-family="微软雅黑" text-anchor="middle" font-size="13px" width="80px" fill="#323232" font-weight="400" align="middle" lineHeight="125%" anchor="middle" family="微软雅黑" size="13px" weight="400" font-style="" opacity="1" y="24.375" transform="rotate(0)"><tspan id="SvgjsTspan1018" dy="16" x="50"><tspan id="SvgjsTspan1019" style="text-decoration:underline;">内容</tspan></tspan></text></g></g><g id="SvgjsG1020" transform="translate(188.40000915527344,25)"><path id="SvgjsPath1021" d="M 0 35C 0 -11.666666666666666 100 -11.666666666666666 100 35C 100 81.66666666666667 0 81.66666666666667 0 35Z" stroke="rgba(50,50,50,1)" stroke-width="2" fill-opacity="1" fill="#ffffff"></path><g id="SvgjsG1022"><text id="SvgjsText1023" font-family="微软雅黑" text-anchor="middle" font-size="13px" width="80px" fill="#323232" font-weight="400" align="middle" lineHeight="125%" anchor="middle" family="微软雅黑" size="13px" weight="400" font-style="" opacity="1" y="24.375" transform="rotate(0)"><tspan id="SvgjsTspan1024" dy="16" x="50"><tspan id="SvgjsTspan1025" style="text-decoration:underline;">时间</tspan></tspan></text></g></g><g id="SvgjsG1026" transform="translate(188.40000915527344,263)"><path id="SvgjsPath1027" d="M 0 35C 0 -11.666666666666666 100 -11.666666666666666 100 35C 100 81.66666666666667 0 81.66666666666667 0 35Z" stroke="rgba(50,50,50,1)" stroke-width="2" fill-opacity="1" fill="#ffffff"></path><g id="SvgjsG1028"><text id="SvgjsText1029" font-family="微软雅黑" text-anchor="middle" font-size="13px" width="80px" fill="#323232" font-weight="400" align="middle" lineHeight="125%" anchor="middle" family="微软雅黑" size="13px" weight="400" font-style="" opacity="1" y="24.375" transform="rotate(0)"><tspan id="SvgjsTspan1030" dy="16" x="50"><tspan id="SvgjsTspan1031" style="text-decoration:underline;">评论编号</tspan></tspan></text></g></g><g id="SvgjsG1032" transform="translate(25,140.4000015258789)"><path id="SvgjsPath1033" d="M 0 35C 0 -11.666666666666666 100 -11.666666666666666 100 35C 100 81.66666666666667 0 81.66666666666667 0 35Z" stroke="rgba(50,50,50,1)" stroke-width="2" fill-opacity="1" fill="#ffffff"></path><g id="SvgjsG1034"><text id="SvgjsText1035" font-family="微软雅黑" text-anchor="middle" font-size="13px" width="80px" fill="#323232" font-weight="400" align="middle" lineHeight="125%" anchor="middle" family="微软雅黑" size="13px" weight="400" font-style="" opacity="1" y="24.375" transform="rotate(0)"><tspan id="SvgjsTspan1036" dy="16" x="50"><tspan id="SvgjsTspan1037" style="text-decoration:underline;">点赞数</tspan></tspan></text></g></g><g id="SvgjsG1038"><path id="SvgjsPath1039" d="M238.40000915527344 96L238.40000915527344 117.5L238.40000915527344 117.5L238.40000915527344 139.4000015258789" stroke="#323232" stroke-width="2" fill="none"></path></g><g id="SvgjsG1040"><path id="SvgjsPath1041" d="M362 175.4000015258789L325.5 175.4000015258789L325.5 175.4000015258789L289.40000915527344 175.4000015258789" stroke="#323232" stroke-width="2" fill="none"></path></g><g id="SvgjsG1042"><path id="SvgjsPath1043" d="M238.40000915527344 262L238.40000915527344 236.5L238.40000915527344 236.5L238.40000915527344 211.4000015258789" stroke="#323232" stroke-width="2" fill="none"></path></g><g id="SvgjsG1044"><path id="SvgjsPath1045" d="M187.40000915527344 175.4000015258789L156.5 175.4000015258789L156.5 175.4000015258789L126 175.4000015258789" stroke="#323232" stroke-width="2" fill="none"></path></g><g id="SvgjsG1046" transform="translate(88.90000915527344,331)"><path id="SvgjsPath1047" d="M 0 0L 299 0L 299 46L 0 46Z" stroke="none" fill="none"></path><g id="SvgjsG1048"><text id="SvgjsText1049" font-family="微软雅黑" text-anchor="middle" font-size="13px" width="299px" fill="#323232" font-weight="700" align="middle" lineHeight="125%" anchor="middle" family="微软雅黑" size="13px" weight="700" font-style="" opacity="1" y="12.375" transform="rotate(0)"><tspan id="SvgjsTspan1050" dy="16" x="149.5"><tspan id="SvgjsTspan1051" style="text-decoration:;">评论实体图</tspan></tspan></text></g></g></svg>