<svg id="SvgjsSvg1006" width="664" height="492.59999084472656" xmlns="http://www.w3.org/2000/svg" version="1.1" xmlns:xlink="http://www.w3.org/1999/xlink" xmlns:svgjs="http://svgjs.com/svgjs"><defs id="SvgjsDefs1007"></defs><g id="SvgjsG1008"><path id="SvgjsPath1009" d="M125.99998474121094 206.99999237060547L293.99998474121094 206.99999237060547" stroke="#323232" stroke-width="2" fill="none"></path></g><g id="SvgjsG1010" transform="translate(294.99998474121094,171.99999237060547)"><path id="SvgjsPath1011" d="M 0 0L 100 0L 100 70L 0 70Z" stroke="rgba(50,50,50,1)" stroke-width="2" fill-opacity="1" fill="#ffffff"></path><g id="SvgjsG1012"><text id="SvgjsText1013" font-family="微软雅黑" text-anchor="middle" font-size="13px" width="80px" fill="#323232" font-weight="400" align="middle" lineHeight="125%" anchor="middle" family="微软雅黑" size="13px" weight="400" font-style="" opacity="1" y="24.375" transform="rotate(0)"><tspan id="SvgjsTspan1014" dy="16" x="50"><tspan id="SvgjsTspan1015" style="text-decoration:;">读者</tspan></tspan></text></g></g><g id="SvgjsG1016" transform="translate(409.99998474121094,24.99999237060547)"><path id="SvgjsPath1017" d="M 0 35C 0 -11.666666666666666 100 -11.666666666666666 100 35C 100 81.66666666666667 0 81.66666666666667 0 35Z" stroke="rgba(50,50,50,1)" stroke-width="2" fill-opacity="1" fill="#ffffff"></path><g id="SvgjsG1018"><text id="SvgjsText1019" font-family="微软雅黑" text-anchor="middle" font-size="13px" width="80px" fill="#323232" font-weight="400" align="middle" lineHeight="125%" anchor="middle" family="微软雅黑" size="13px" weight="400" font-style="" opacity="1" y="24.375" transform="rotate(0)"><tspan id="SvgjsTspan1020" dy="16" x="50"><tspan id="SvgjsTspan1021" style="text-decoration:underline;">昵称</tspan></tspan></text></g></g><g id="SvgjsG1022" transform="translate(524.9999847412109,248.99999237060547)"><path id="SvgjsPath1023" d="M 0 35C 0 -11.666666666666666 100 -11.666666666666666 100 35C 100 81.66666666666667 0 81.66666666666667 0 35Z" stroke="rgba(50,50,50,1)" stroke-width="2" fill-opacity="1" fill="#ffffff"></path><g id="SvgjsG1024"><text id="SvgjsText1025" font-family="微软雅黑" text-anchor="middle" font-size="13px" width="80px" fill="#323232" font-weight="400" align="middle" lineHeight="125%" anchor="middle" family="微软雅黑" size="13px" weight="400" font-style="" opacity="1" y="24.375" transform="rotate(0)"><tspan id="SvgjsTspan1026" dy="16" x="50"><tspan id="SvgjsTspan1027" style="text-decoration:underline;">邮箱</tspan></tspan></text></g></g><g id="SvgjsG1028" transform="translate(466.99998474121094,337.99999237060547)"><path id="SvgjsPath1029" d="M 0 35C 0 -11.666666666666666 100 -11.666666666666666 100 35C 100 81.66666666666667 0 81.66666666666667 0 35Z" stroke="rgba(50,50,50,1)" stroke-width="2" fill-opacity="1" fill="#ffffff"></path><g id="SvgjsG1030"><text id="SvgjsText1031" font-family="微软雅黑" text-anchor="middle" font-size="13px" width="80px" fill="#323232" font-weight="400" align="middle" lineHeight="125%" anchor="middle" family="微软雅黑" size="13px" weight="400" font-style="" opacity="1" y="24.375" transform="rotate(0)"><tspan id="SvgjsTspan1032" dy="16" x="50"><tspan id="SvgjsTspan1033" style="text-decoration:underline;">余额</tspan></tspan></text></g></g><g id="SvgjsG1034" transform="translate(138.99998474121094,337.99999237060547)"><path id="SvgjsPath1035" d="M 0 35C 0 -11.666666666666666 100 -11.666666666666666 100 35C 100 81.66666666666667 0 81.66666666666667 0 35Z" stroke="rgba(50,50,50,1)" stroke-width="2" fill-opacity="1" fill="#ffffff"></path><g id="SvgjsG1036"><text id="SvgjsText1037" font-family="微软雅黑" text-anchor="middle" font-size="13px" width="80px" fill="#323232" font-weight="400" align="middle" lineHeight="125%" anchor="middle" family="微软雅黑" size="13px" weight="400" font-style="" opacity="1" y="24.375" transform="rotate(0)"><tspan id="SvgjsTspan1038" dy="16" x="50"><tspan id="SvgjsTspan1039" style="text-decoration:underline;">出生日期</tspan></tspan></text></g></g><g id="SvgjsG1040" transform="translate(294.99998474121094,24.99999237060547)"><path id="SvgjsPath1041" d="M 0 35C 0 -11.666666666666666 100 -11.666666666666666 100 35C 100 81.66666666666667 0 81.66666666666667 0 35Z" stroke="rgba(50,50,50,1)" stroke-width="2" fill-opacity="1" fill="#ffffff"></path><g id="SvgjsG1042"><text id="SvgjsText1043" font-family="微软雅黑" text-anchor="middle" font-size="13px" width="80px" fill="#323232" font-weight="400" align="middle" lineHeight="125%" anchor="middle" family="微软雅黑" size="13px" weight="400" font-style="" opacity="1" y="24.375" transform="rotate(0)"><tspan id="SvgjsTspan1044" dy="16" x="50"><tspan id="SvgjsTspan1045" style="text-decoration:underline;">密码</tspan></tspan></text></g></g><g id="SvgjsG1046" transform="translate(58.99998474121094,272.99999237060547)"><path id="SvgjsPath1047" d="M 0 35C 0 -11.666666666666666 100 -11.666666666666666 100 35C 100 81.66666666666667 0 81.66666666666667 0 35Z" stroke="rgba(50,50,50,1)" stroke-width="2" fill-opacity="1" fill="#ffffff"></path><g id="SvgjsG1048"><text id="SvgjsText1049" font-family="微软雅黑" text-anchor="middle" font-size="13px" width="80px" fill="#323232" font-weight="400" align="middle" lineHeight="125%" anchor="middle" family="微软雅黑" size="13px" weight="400" font-style="" opacity="1" y="24.375" transform="rotate(0)"><tspan id="SvgjsTspan1050" dy="16" x="50"><tspan id="SvgjsTspan1051" style="text-decoration:underline;">电话</tspan></tspan></text></g></g><g id="SvgjsG1052" transform="translate(58.99998474121094,83.99999237060547)"><path id="SvgjsPath1053" d="M 0 35C 0 -11.666666666666666 100 -11.666666666666666 100 35C 100 81.66666666666667 0 81.66666666666667 0 35Z" stroke="rgba(50,50,50,1)" stroke-width="2" fill-opacity="1" fill="#ffffff"></path><g id="SvgjsG1054"><text id="SvgjsText1055" font-family="微软雅黑" text-anchor="middle" font-size="13px" width="80px" fill="#323232" font-weight="400" align="middle" lineHeight="125%" anchor="middle" family="微软雅黑" size="13px" weight="400" font-style="" opacity="1" y="24.375" transform="rotate(0)"><tspan id="SvgjsTspan1056" dy="16" x="50"><tspan id="SvgjsTspan1057" style="text-decoration:underline;">地址</tspan></tspan></text></g></g><g id="SvgjsG1058" transform="translate(174.99998474121094,24.99999237060547)"><path id="SvgjsPath1059" d="M 0 35C 0 -11.666666666666666 100 -11.666666666666666 100 35C 100 81.66666666666667 0 81.66666666666667 0 35Z" stroke="rgba(50,50,50,1)" stroke-width="2" fill-opacity="1" fill="#ffffff"></path><g id="SvgjsG1060"><text id="SvgjsText1061" font-family="微软雅黑" text-anchor="middle" font-size="13px" width="80px" fill="#323232" font-weight="400" align="middle" lineHeight="125%" anchor="middle" family="微软雅黑" size="13px" weight="400" font-style="" opacity="1" y="24.375" transform="rotate(0)"><tspan id="SvgjsTspan1062" dy="16" x="50"><tspan id="SvgjsTspan1063" style="text-decoration:underline;">年龄</tspan></tspan></text></g></g><g id="SvgjsG1064" transform="translate(294.99998474121094,337.99999237060547)"><path id="SvgjsPath1065" d="M 0 35C 0 -11.666666666666666 100 -11.666666666666666 100 35C 100 81.66666666666667 0 81.66666666666667 0 35Z" stroke="rgba(50,50,50,1)" stroke-width="2" fill-opacity="1" fill="#ffffff"></path><g id="SvgjsG1066"><text id="SvgjsText1067" font-family="微软雅黑" text-anchor="middle" font-size="13px" width="80px" fill="#323232" font-weight="400" align="middle" lineHeight="125%" anchor="middle" family="微软雅黑" size="13px" weight="400" font-style="" opacity="1" y="24.375" transform="rotate(0)"><tspan id="SvgjsTspan1068" dy="16" x="50"><tspan id="SvgjsTspan1069" style="text-decoration:underline;">头像</tspan></tspan></text></g></g><g id="SvgjsG1070" transform="translate(509.99998474121094,83.99999237060547)"><path id="SvgjsPath1071" d="M 0 35C 0 -11.666666666666666 100 -11.666666666666666 100 35C 100 81.66666666666667 0 81.66666666666667 0 35Z" stroke="rgba(50,50,50,1)" stroke-width="2" fill-opacity="1" fill="#ffffff"></path><g id="SvgjsG1072"><text id="SvgjsText1073" font-family="微软雅黑" text-anchor="middle" font-size="13px" width="80px" fill="#323232" font-weight="400" align="middle" lineHeight="125%" anchor="middle" family="微软雅黑" size="13px" weight="400" font-style="" opacity="1" y="24.375" transform="rotate(0)"><tspan id="SvgjsTspan1074" dy="16" x="50"><tspan id="SvgjsTspan1075" style="text-decoration:underline;">简介</tspan></tspan></text></g></g><g id="SvgjsG1076"><path id="SvgjsPath1077" d="M344.99998474121094 170.99999237060547L344.99998474121094 95.99999237060547" stroke="#323232" stroke-width="2" fill="none"></path></g><g id="SvgjsG1078"><path id="SvgjsPath1079" d="M459.16904773905264 95.55635888509406L345.83092174336923 171.44362585611688" stroke="#323232" stroke-width="2" fill="none"></path></g><g id="SvgjsG1080"><path id="SvgjsPath1081" d="M509.2058229644582 119.60769877368585L395.79414651796367 206.39228596752508" stroke="#323232" stroke-width="2" fill="none"></path></g><g id="SvgjsG1082"><path id="SvgjsPath1083" d="M524.1395857188234 283.49037141119123L395.86038376359863 207.5096133300197" stroke="#323232" stroke-width="2" fill="none"></path></g><g id="SvgjsG1084"><path id="SvgjsPath1085" d="M516.126787039196 337.51262621134134L345.8731824432258 242.4873585298696" stroke="#323232" stroke-width="2" fill="none"></path></g><g id="SvgjsG1086"><path id="SvgjsPath1087" d="M344.99998474121094 336.99999237060547L344.99998474121094 242.99999237060547" stroke="#323232" stroke-width="2" fill="none"></path></g><g id="SvgjsG1088"><path id="SvgjsPath1089" d="M189.85164305791545 337.47589494494116L344.1483264245064 242.52408979626978" stroke="#323232" stroke-width="2" fill="none"></path></g><g id="SvgjsG1090"><path id="SvgjsPath1091" d="M159.8028093188775 307.40377705925016L294.19716016354437 207.59620768196078" stroke="#323232" stroke-width="2" fill="none"></path></g><g id="SvgjsG1092"><path id="SvgjsPath1093" d="M159.83955489836308 119.54324364876274L294.1604145840588 206.45674109244817" stroke="#323232" stroke-width="2" fill="none"></path></g><g id="SvgjsG1094"><path id="SvgjsPath1095" d="M225.84161867627608 95.54004081227228L344.1583508061458 171.45994392893866" stroke="#323232" stroke-width="2" fill="none"></path></g><g id="SvgjsG1096" transform="translate(164.99998474121094,409.59999084472656)"><path id="SvgjsPath1097" d="M 0 0L 360 0L 360 58L 0 58Z" stroke="none" fill="none"></path><g id="SvgjsG1098"><text id="SvgjsText1099" font-family="微软雅黑" text-anchor="middle" font-size="13px" width="360px" fill="#323232" font-weight="700" align="middle" lineHeight="125%" anchor="middle" family="微软雅黑" size="13px" weight="700" font-style="" opacity="1" y="18.375" transform="rotate(0)"><tspan id="SvgjsTspan1100" dy="16" x="180"><tspan id="SvgjsTspan1101" style="text-decoration:;">读者实体图</tspan></tspan></text></g></g><g id="SvgjsG1102" transform="translate(538.9999847412109,171.99999237060547)"><path id="SvgjsPath1103" d="M 0 35C 0 -11.666666666666666 100 -11.666666666666666 100 35C 100 81.66666666666667 0 81.66666666666667 0 35Z" stroke="rgba(50,50,50,1)" stroke-width="2" fill-opacity="1" fill="#ffffff"></path><g id="SvgjsG1104"><text id="SvgjsText1105" font-family="微软雅黑" text-anchor="middle" font-size="13px" width="80px" fill="#323232" font-weight="400" align="middle" lineHeight="125%" anchor="middle" family="微软雅黑" size="13px" weight="400" font-style="" opacity="1" y="24.375" transform="rotate(0)"><tspan id="SvgjsTspan1106" dy="16" x="50"><tspan id="SvgjsTspan1107" style="text-decoration:underline;">读者编号</tspan></tspan></text></g></g><g id="SvgjsG1108"><path id="SvgjsPath1109" d="M537.9999847412109 206.99999237060547L395.99998474121094 206.99999237060547" stroke="#323232" stroke-width="2" fill="none"></path></g><g id="SvgjsG1110" transform="translate(24.999984741210938,171.99999237060547)"><path id="SvgjsPath1111" d="M 0 35C 0 -11.666666666666666 100 -11.666666666666666 100 35C 100 81.66666666666667 0 81.66666666666667 0 35Z" stroke="rgba(50,50,50,1)" stroke-width="2" fill-opacity="1" fill="#ffffff"></path><g id="SvgjsG1112"><text id="SvgjsText1113" font-family="微软雅黑" text-anchor="middle" font-size="13px" width="80px" fill="#323232" font-weight="400" align="middle" lineHeight="125%" anchor="middle" family="微软雅黑" size="13px" weight="400" font-style="" opacity="1" y="24.375" transform="rotate(0)"><tspan id="SvgjsTspan1114" dy="16" x="50"><tspan id="SvgjsTspan1115" style="text-decoration:underline;">性别</tspan></tspan></text></g></g></svg>